<svg xmlns="http://www.w3.org/2000/svg" viewBox="0 0 720 240" role="img" aria-label="Brown rubber sheet roll">
  <defs>
    <linearGradient id="sheet" x1="0" x2="1">
      <stop offset="0" stop-color="#7c3f20"/>
      <stop offset=".55" stop-color="#b87951"/>
      <stop offset="1" stop-color="#5b2d17"/>
    </linearGradient>
    <filter id="shadow" x="-20%" y="-20%" width="140%" height="140%">
      <feDropShadow dx="0" dy="10" stdDeviation="12" flood-color="#7c2d12" flood-opacity=".25"/>
    </filter>
  </defs>
  <g filter="url(#shadow)">
    <path fill="url(#sheet)" d="M62 143 304 67c77-23 143-6 197 44l94 87H190c-66 0-115-18-128-55z"/>
    <ellipse cx="516" cy="151" rx="82" ry="67" fill="#8b4b29"/>
    <ellipse cx="518" cy="151" rx="54" ry="44" fill="#5f321c"/>
    <ellipse cx="520" cy="151" rx="31" ry="25" fill="#3f2112"/>
    <path fill="#a96942" opacity=".9" d="M67 143c61 16 122 16 185 0l176-47c-38-21-79-26-123-13z"/>
    <path fill="#6b351c" opacity=".42" d="M112 111c72 21 145 19 219-5l36-12c-23-8-47-8-74-1z"/>
  </g>
</svg>
