<svg xmlns="http://www.w3.org/2000/svg" viewBox="0 0 720 240" role="img" aria-label="Brown shoe sole">
  <defs>
    <filter id="shadow" x="-20%" y="-20%" width="140%" height="140%">
      <feDropShadow dx="0" dy="8" stdDeviation="10" flood-color="#92400e" flood-opacity=".25"/>
    </filter>
  </defs>
  <path filter="url(#shadow)" fill="#b77a45" d="M55 96C70 44 160 36 242 63c45 15 85 18 130 5 87-25 192-28 253 22 29 24 40 63 21 92-23 36-83 42-150 27-61-14-106-16-166-4-82 17-171 17-236-12-45-20-59-57-39-97z"/>
  <g fill="#8a522b" opacity=".9">
    <rect x="95" y="74" width="40" height="28" rx="8"/>
    <rect x="151" y="69" width="34" height="34" rx="8"/>
    <rect x="208" y="76" width="42" height="24" rx="8"/>
    <rect x="469" y="73" width="38" height="28" rx="8"/>
    <rect x="527" y="78" width="46" height="28" rx="8"/>
    <rect x="588" y="98" width="44" height="24" rx="8"/>
    <rect x="93" y="143" width="48" height="24" rx="8"/>
    <rect x="166" y="150" width="38" height="26" rx="8"/>
    <rect x="509" y="148" width="42" height="26" rx="8"/>
    <rect x="580" y="143" width="38" height="24" rx="8"/>
  </g>
  <g fill="none" stroke="#996138" stroke-width="8" stroke-linecap="round">
    <path d="M284 78c20 19 22 42 5 68"/>
    <path d="M354 76c-13 22-12 47 3 70"/>
    <path d="M421 80c18 18 19 39 4 62"/>
  </g>
</svg>
